<svg width="732" height="382" viewBox="0 0 732 382" fill="none" xmlns="http://www.w3.org/2000/svg">
<path d="M55.065 377H54.065V378H55.065V377ZM55.065 61.108H56.065V59.1315L54.4726 60.3023L55.065 61.108ZM1.719 100.333H0.719002V102.31L2.31139 101.139L1.719 100.333ZM1.719 43.849L1.12661 43.0433L0.719002 43.343V43.849H1.719ZM55.065 4.62399V3.62399H54.7369L54.4726 3.81834L55.065 4.62399ZM108.411 4.62399H109.411V3.62399H108.411V4.62399ZM108.411 377V378H109.411V377H108.411ZM56.065 377V61.108H54.065V377H56.065ZM54.4726 60.3023L1.12661 99.5273L2.31139 101.139L55.6574 61.9136L54.4726 60.3023ZM2.719 100.333V43.849H0.719002V100.333H2.719ZM2.31139 44.6546L55.6574 5.42964L54.4726 3.81834L1.12661 43.0433L2.31139 44.6546ZM55.065 5.62399H108.411V3.62399H55.065V5.62399ZM107.411 4.62399V377H109.411V4.62399H107.411ZM108.411 376H55.065V378H108.411V376ZM204.351 377L203.418 376.638L202.89 378H204.351V377ZM265.019 220.623L265.951 220.985L266.187 220.377L265.726 219.916L265.019 220.623ZM263.973 219.577L264.68 218.87L264.047 218.237L263.348 218.796L263.973 219.577ZM255.605 223.238L255.801 224.219L255.835 224.212L255.868 224.203L255.605 223.238ZM215.334 217.485L214.842 218.356L215.334 217.485ZM196.506 200.226L197.344 199.681L197.335 199.667L197.325 199.653L196.506 200.226ZM190.753 189.243L189.804 189.559L189.808 189.572L189.813 189.585L190.753 189.243ZM187.615 173.553L188.609 173.443L188.606 173.415L188.601 173.389L187.615 173.553ZM185.523 150.018L184.523 150.054L184.523 150.055L185.523 150.018ZM185.523 83.597L186.522 83.6424L186.522 83.6404L185.523 83.597ZM187.615 63.2L188.598 63.3843L188.603 63.3583L188.606 63.3321L187.615 63.2ZM190.753 49.602L189.842 49.1882L189.826 49.2236L189.813 49.2602L190.753 49.602ZM197.029 37.573L196.174 37.0547L196.169 37.0619L196.165 37.0691L197.029 37.573ZM224.748 10.9L224.28 10.0161L224.269 10.0221L224.748 10.9ZM303.721 11.423L303.222 12.2896L303.232 12.2953L303.242 12.3009L303.721 11.423ZM331.44 37.573L332.304 37.0691L332.296 37.0559L332.288 37.043L331.44 37.573ZM337.716 49.602L336.805 50.0158L337.716 49.602ZM341.9 63.2L342.892 63.076L342.888 63.0397L342.88 63.0039L341.9 63.2ZM343.469 83.597L342.47 83.6404L342.47 83.6424L343.469 83.597ZM343.469 142.173L344.468 142.221L344.468 142.218L343.469 142.173ZM341.9 161.001L342.883 161.185L342.888 161.159L342.891 161.133L341.9 161.001ZM338.239 176.168L337.283 175.874L337.275 175.899L337.269 175.925L338.239 176.168ZM334.055 189.766L334.991 190.117L334.994 190.109L334.997 190.102L334.055 189.766ZM263.973 377V378H264.666L264.909 377.351L263.973 377ZM282.801 62.154L283.483 61.4229L282.801 62.154ZM246.191 62.154L245.508 61.4229L246.191 62.154ZM205.283 377.362L265.951 220.985L264.086 220.261L203.418 376.638L205.283 377.362ZM265.726 219.916L264.68 218.87L263.266 220.284L264.312 221.33L265.726 219.916ZM263.348 218.796C261.765 220.063 259.132 221.239 255.342 222.273L255.868 224.203C259.748 223.145 262.694 221.88 264.597 220.358L263.348 218.796ZM255.409 222.257C252.015 222.936 247.383 223.284 241.484 223.284V225.284C247.44 225.284 252.221 224.935 255.801 224.219L255.409 222.257ZM241.484 223.284C232.238 223.284 223.692 221.06 215.826 216.614L214.842 218.356C223.015 222.975 231.901 225.284 241.484 225.284V223.284ZM215.826 216.614C207.931 212.152 201.78 206.506 197.344 199.681L195.667 200.771C200.297 207.893 206.698 213.752 214.842 218.356L215.826 216.614ZM197.325 199.653C194.932 196.234 193.056 192.651 191.693 188.901L189.813 189.585C191.239 193.506 193.198 197.244 195.687 200.799L197.325 199.653ZM191.701 188.927C190.336 184.831 189.301 179.676 188.609 173.443L186.621 173.663C187.323 179.982 188.38 185.287 189.804 189.559L191.701 188.927ZM188.601 173.389C187.565 167.17 186.87 159.37 186.522 149.981L184.523 150.055C184.873 159.493 185.573 167.384 186.628 173.717L188.601 173.389ZM186.522 149.982C186.174 140.236 186 128.045 186 113.408H184C184 128.059 184.174 140.275 184.523 150.054L186.522 149.982ZM186 113.408C186 101.212 186.174 91.2918 186.522 83.6424L184.524 83.5516C184.174 91.2435 184 101.197 184 113.408H186ZM186.522 83.6404C186.869 75.6507 187.563 68.9018 188.598 63.3843L186.632 63.0157C185.574 68.6555 184.874 75.5046 184.524 83.5535L186.522 83.6404ZM188.606 63.3321C189.296 58.1541 190.329 53.6949 191.693 49.9437L189.813 49.2602C188.388 53.1797 187.328 57.7859 186.624 63.0678L188.606 63.3321ZM191.663 50.0158C193.391 46.2154 195.466 42.2359 197.893 38.0768L196.165 37.0691C193.71 41.2781 191.602 45.3179 189.842 49.1882L191.663 50.0158ZM197.884 38.0913C204.768 26.7321 213.88 17.967 225.227 11.7779L224.269 10.0221C212.604 16.3849 203.236 25.4019 196.174 37.0547L197.884 38.0913ZM225.216 11.7838C236.913 5.59092 250 2.48597 264.496 2.48597V0.485971C249.704 0.485971 236.292 3.65702 224.28 10.0162L225.216 11.7838ZM264.496 2.48597C278.983 2.48597 291.883 5.7611 303.222 12.2896L304.22 10.5563C292.547 3.8355 279.296 0.485971 264.496 0.485971V2.48597ZM303.242 12.3009C314.596 18.4942 323.709 27.0908 330.592 38.103L332.288 37.043C325.224 25.7405 315.857 16.9037 304.2 10.5451L303.242 12.3009ZM330.576 38.0768C333.002 42.2359 335.078 46.2154 336.805 50.0158L338.626 49.1882C336.867 45.3179 334.759 41.2781 332.304 37.0691L330.576 38.0768ZM336.805 50.0158C338.51 53.7659 339.884 58.2223 340.919 63.3961L342.88 63.0039C341.823 57.7177 340.408 53.1087 338.626 49.1882L336.805 50.0158ZM340.908 63.324C341.6 68.8673 342.122 75.6377 342.47 83.6404L344.468 83.5535C344.118 75.5176 343.594 68.69 342.892 63.076L340.908 63.324ZM342.47 83.6424C342.818 91.2918 342.992 101.212 342.992 113.408H344.992C344.992 101.197 344.817 91.2435 344.468 83.5516L342.47 83.6424ZM342.992 113.408C342.992 124.905 342.818 134.477 342.47 142.128L344.468 142.218C344.817 134.527 344.992 124.922 344.992 113.408H342.992ZM342.47 142.125C342.122 149.429 341.601 155.675 340.909 160.869L342.891 161.133C343.593 155.867 344.118 149.561 344.468 142.221L342.47 142.125ZM340.917 160.817C339.877 166.365 338.665 171.383 337.283 175.874L339.195 176.462C340.602 171.887 341.831 166.794 342.883 161.185L340.917 160.817ZM337.269 175.925C336.232 180.072 334.847 184.573 333.113 189.43L334.997 190.102C336.749 185.196 338.154 180.632 339.209 176.411L337.269 175.925ZM333.118 189.415L263.036 376.649L264.909 377.351L334.991 190.117L333.118 189.415ZM263.973 376H204.351V378H263.973V376ZM237.346 150.541C237.346 158.8 240.05 165.529 245.508 170.623L246.873 169.161C241.871 164.493 239.346 158.32 239.346 150.541H237.346ZM245.508 170.623C250.918 175.672 257.262 178.214 264.496 178.214V176.214C257.783 176.214 251.923 173.874 246.873 169.161L245.508 170.623ZM264.496 178.214C271.73 178.214 278.073 175.672 283.483 170.623L282.118 169.161C277.068 173.874 271.209 176.214 264.496 176.214V178.214ZM283.483 170.623C288.941 165.529 291.646 158.8 291.646 150.541H289.646C289.646 158.32 287.12 164.493 282.118 169.161L283.483 170.623ZM291.646 150.541V81.505H289.646V150.541H291.646ZM291.646 81.505C291.646 73.2455 288.941 66.5173 283.483 61.4229L282.118 62.885C287.12 67.5534 289.646 73.7258 289.646 81.505H291.646ZM283.483 61.4229C278.073 56.3737 271.73 53.832 264.496 53.832V55.832C271.209 55.832 277.068 58.1716 282.118 62.885L283.483 61.4229ZM264.496 53.832C257.262 53.832 250.918 56.3737 245.508 61.4229L246.873 62.885C251.923 58.1716 257.783 55.832 264.496 55.832V53.832ZM245.508 61.4229C240.05 66.5173 237.346 73.2455 237.346 81.505H239.346C239.346 73.7258 241.871 67.5534 246.873 62.885L245.508 61.4229ZM237.346 81.505V150.541H239.346V81.505H237.346ZM537.21 4.62399H538.21V3.62399H537.21V4.62399ZM537.21 54.832V55.832H538.21V54.832H537.21ZM431.564 54.832V53.832H430.564V54.832H431.564ZM431.564 155.248H430.564V157.662L432.271 155.955L431.564 155.248ZM450.392 143.219L450.77 144.145L450.788 144.137L450.805 144.129L450.392 143.219ZM519.951 154.725L519.243 155.432L519.255 155.443L519.266 155.454L519.951 154.725ZM530.411 333.591L529.504 333.17L529.497 333.183L529.491 333.197L530.411 333.591ZM513.152 358.695L513.841 359.419L513.152 358.695ZM487.525 374.908L487.872 375.846L487.881 375.842L487.89 375.839L487.525 374.908ZM427.38 374.908L427.002 375.834L427.023 375.842L427.043 375.85L427.38 374.908ZM402.276 358.695L401.586 359.419L402.276 358.695ZM384.494 333.591L383.574 333.985L383.58 333.999L383.587 334.012L384.494 333.591ZM378.218 284.429V283.429H377.218V284.429H378.218ZM431.564 284.429H432.564V283.429H431.564V284.429ZM438.886 319.47L438.154 320.152L438.178 320.178L438.203 320.201L438.886 319.47ZM477.065 319.47L476.332 318.79L476.318 318.804L476.305 318.819L477.065 319.47ZM476.542 192.904L475.786 193.559L475.798 193.573L475.81 193.586L476.542 192.904ZM447.254 187.674L447.66 188.588L447.7 188.57L447.739 188.548L447.254 187.674ZM439.409 192.904L438.701 192.197L439.409 192.904ZM434.702 199.703L435.576 200.189L435.601 200.144L435.621 200.097L434.702 199.703ZM431.564 205.456V206.456H432.182L432.458 205.903L431.564 205.456ZM384.494 205.456H383.494V206.456H384.494V205.456ZM384.494 4.62399V3.62399H383.494V4.62399H384.494ZM536.21 4.62399V54.832H538.21V4.62399H536.21ZM537.21 53.832H431.564V55.832H537.21V53.832ZM430.564 54.832V155.248H432.564V54.832H430.564ZM432.271 155.955C437.041 151.184 443.198 147.242 450.77 144.145L450.013 142.293C442.243 145.472 435.849 149.549 430.856 154.541L432.271 155.955ZM450.805 144.129C458.332 140.708 466.73 138.989 476.019 138.989V136.989C466.479 136.989 457.793 138.756 449.978 142.309L450.805 144.129ZM476.019 138.989C493.927 138.989 508.302 144.491 519.243 155.432L520.658 154.018C509.284 142.645 494.372 136.989 476.019 136.989V138.989ZM519.266 155.454C530.502 166.009 536.21 182.086 536.21 203.887H538.21C538.21 181.756 532.411 165.058 520.635 153.996L519.266 155.454ZM536.21 203.887V300.119H538.21V203.887H536.21ZM536.21 300.119C536.21 312.55 533.966 323.559 529.504 333.17L531.318 334.012C535.921 324.097 538.21 312.792 538.21 300.119H536.21ZM529.491 333.197C525.358 342.842 519.681 351.096 512.462 357.971L513.841 359.419C521.266 352.348 527.095 343.866 531.33 333.985L529.491 333.197ZM512.462 357.971C505.237 364.852 496.806 370.187 487.159 373.977L487.89 375.839C497.769 371.958 506.422 366.485 513.841 359.419L512.462 357.971ZM487.177 373.97C477.879 377.414 468.06 379.138 457.714 379.138V381.138C468.287 381.138 478.342 379.375 487.872 375.846L487.177 373.97ZM457.714 379.138C447.367 379.138 437.37 377.414 427.716 373.966L427.043 375.85C436.915 379.375 447.14 381.138 457.714 381.138V379.138ZM427.757 373.982C418.458 370.194 410.196 364.857 402.965 357.971L401.586 359.419C408.999 366.479 417.473 371.952 427.002 375.834L427.757 373.982ZM402.965 357.971C395.74 351.089 389.884 342.826 385.401 333.17L383.587 334.012C388.169 343.881 394.167 352.354 401.586 359.419L402.965 357.971ZM385.413 333.197C381.291 323.579 379.218 312.56 379.218 300.119H377.218C377.218 312.782 379.328 324.077 383.574 333.985L385.413 333.197ZM379.218 300.119V284.429H377.218V300.119H379.218ZM378.218 285.429H431.564V283.429H378.218V285.429ZM430.564 284.429V298.027H432.564V284.429H430.564ZM430.564 298.027C430.564 307.275 433.058 314.691 438.154 320.152L439.617 318.788C434.951 313.789 432.564 306.909 432.564 298.027H430.564ZM438.203 320.201C443.641 325.277 450.52 327.792 458.76 327.792V325.792C450.96 325.792 444.59 323.426 439.568 318.739L438.203 320.201ZM458.76 327.792C466.993 327.792 473.404 325.277 477.824 320.121L476.305 318.819C472.357 323.426 466.565 325.792 458.76 325.792V327.792ZM477.797 320.15C482.549 315.033 484.864 307.962 484.864 299.073H482.864C482.864 307.617 480.645 314.145 476.332 318.79L477.797 320.15ZM484.864 299.073V211.732H482.864V299.073H484.864ZM484.864 211.732C484.864 204.163 482.331 197.642 477.273 192.222L475.81 193.586C480.515 198.626 482.864 204.657 482.864 211.732H484.864ZM477.297 192.249C472.562 186.786 466.352 184.059 458.76 184.059V186.059C465.811 186.059 471.455 188.562 475.786 193.559L477.297 192.249ZM458.76 184.059C454.101 184.059 450.089 184.955 446.768 186.8L447.739 188.548C450.695 186.906 454.353 186.059 458.76 186.059V184.059ZM446.847 186.76C443.615 188.197 440.893 190.005 438.701 192.197L440.116 193.611C442.108 191.619 444.616 189.941 447.66 188.588L446.847 186.76ZM438.701 192.197C436.53 194.369 434.884 196.739 433.782 199.309L435.621 200.097C436.611 197.786 438.103 195.623 440.116 193.611L438.701 192.197ZM433.827 199.217C432.089 202.346 431.03 204.287 430.669 205.009L432.458 205.903C432.795 205.23 433.827 203.335 435.576 200.189L433.827 199.217ZM431.564 204.456H384.494V206.456H431.564V204.456ZM385.494 205.456V4.62399H383.494V205.456H385.494ZM384.494 5.62399H537.21V3.62399H384.494V5.62399ZM583.464 377L582.504 376.721L582.132 378H583.464V377ZM677.081 54.832L678.042 55.111L678.413 53.832H677.081V54.832ZM618.505 54.832V53.832H617.505V54.832H618.505ZM618.505 97.718V98.718H619.505V97.718H618.505ZM571.435 97.718H570.435V98.718H571.435V97.718ZM571.435 4.62399V3.62399H570.435V4.62399H571.435ZM730.427 4.62399H731.427V3.62399H730.427V4.62399ZM730.427 57.97L731.389 58.2428L731.427 58.1091V57.97H730.427ZM639.948 377V378H640.704L640.91 377.273L639.948 377ZM584.425 377.279L678.042 55.111L676.121 54.5529L582.504 376.721L584.425 377.279ZM677.081 53.832H618.505V55.832H677.081V53.832ZM617.505 54.832V97.718H619.505V54.832H617.505ZM618.505 96.718H571.435V98.718H618.505V96.718ZM572.435 97.718V4.62399H570.435V97.718H572.435ZM571.435 5.62399H730.427V3.62399H571.435V5.62399ZM729.427 4.62399V57.97H731.427V4.62399H729.427ZM729.465 57.6971L638.986 376.727L640.91 377.273L731.389 58.2428L729.465 57.6971ZM639.948 376H583.464V378H639.948V376Z" fill="white"/>
</svg>
